<svg id="Layer_1" data-name="Layer 1" xmlns="http://www.w3.org/2000/svg" xmlns:xlink="http://www.w3.org/1999/xlink" viewBox="0 0 1800 1800"><defs><style>.cls-1{fill:#fff;stroke:#fff;stroke-miterlimit:10;}.cls-2{fill:url(#linear-gradient);}</style><linearGradient id="linear-gradient" x1="698.66" y1="1280.33" x2="143.88" y2="725.56" gradientUnits="userSpaceOnUse"><stop offset="0.14" stop-color="#fddd73"/><stop offset="0.18" stop-color="#edcc62"/><stop offset="0.26" stop-color="#c39f36"/><stop offset="0.27" stop-color="#bf9a31"/><stop offset="0.46" stop-color="#ffd140"/><stop offset="0.57" stop-color="#bf9a31"/><stop offset="0.7" stop-color="#fddd73"/><stop offset="0.92" stop-color="#a67e2d"/></linearGradient></defs><path class="cls-1" d="M1185,1203.11c13.78,4.07,27.62,9.36,42,12.2,74.79,14.83,152.16-21.8,181.27-99.49,20.63-55,31-111.7,28.1-170.41-4.09-82.53-31.59-156.74-81.88-222.36-38.46-50.21-86.27-89.33-142.12-118.85S1084,582.91,1035.93,623.76c-19.42,16.49-33.53,36.68-45.25,59-13.15,25-26.85,49.69-40.62,75.1-3.94-7.44-7.64-14.41-11.33-21.4-8.93-16.91-17.92-33.79-26.68-50.79-.91-1.76-1.4-4.72-.54-6.29,12.81-23.45,23.87-47.94,40-69.46,37-49.47,86.13-79.87,146.81-91.14,57.4-10.66,110.83.72,161.22,29.6,83,47.59,148.59,112.23,194,196.71a451.5,451.5,0,0,1,50.17,154.5c12.12,89.46.84,176.05-36.08,258.24-31.4,69.91-87,111.64-162,127.58-22.8,4.85-45.83,5.74-69,3.85-4.45-.36-7.34-1.69-9.61-6.1-13.47-26.17-27.36-52.12-41.1-78.15C1185.46,1204.13,1185.08,1203.21,1185,1203.11Z"/><path class="cls-1" d="M893.51,713c100,189.63,199.53,378.24,299.68,568.08-6.16-2-11.19-3.5-16.1-5.33-57.13-21.24-99.36-59.3-127.51-113.17L895.17,867.16c-.61-1.16-1.32-2.27-2.26-3.88-5.41,10-10.66,19.54-15.88,29.16-48,88.51-95.7,177.13-144,265.47-26.81,49.08-66.35,84.28-118.52,105-1.08.43-2.16.85-3.27,1.21-.27.09-.62-.09-1.51-.24Z"/><path class="cls-2" d="M621.33,1179.88c-6.71,13.08-12.75,24.88-18.82,36.66-9.44,18.34-18.83,36.7-28.47,54.92a8.76,8.76,0,0,1-5.37,4,223.73,223.73,0,0,1-68.62,1.57c-36.7-4.57-70.71-16.84-101.5-37.46-47.45-31.79-78.05-75.83-93.74-130.41a497.05,497.05,0,0,1-19.42-125.25c-1.57-61.89,8.2-121.8,30-179.71,1.41-3.73.93-6-2.14-8.49-4.66-3.75-9-7.91-13.46-11.91s-8.66-7.77-13.49-12.11c8-4.07,15.66-8,23.33-11.85,25.39-12.83,50.73-25.74,76.19-38.44,13.46-6.72,26.81.94,28,15.87q.5,6,.66,12,1.69,62.37,3.35,124.75c.13,5,.46,9.9.77,16.3l-44.3-39.59c-3.4,13.93-7,26.86-9.66,40a388.43,388.43,0,0,0-6.94,111.67c3.33,39.21,9.3,78.09,26,114.08,21.76,46.79,59.11,75.42,109.15,86.77,44.51,10.09,86.53,2.88,125.28-21.72C618.81,1181.12,619.42,1180.86,621.33,1179.88Z"/><path class="cls-1" d="M837.87,757.63C830.66,743.8,824,731,817.31,718.22c-8.1-15.45-15.75-31.16-24.44-46.27-25.84-44.88-64.42-72.22-115.46-81.29-38.83-6.9-74.79,1.51-108.68,21.24-54.9,32-101.38,73.05-138.2,124.89-.65.92-1.39,1.78-2.6,3.3-.31-3.24-.35-5.82-.84-8.31-4.39-22.56-28.37-33.87-49.17-23.26-6.75,3.45-13.54,6.82-20.31,10.23l-1-1c8.59-12.12,16.82-24.53,25.84-36.32a495.93,495.93,0,0,1,164.19-138.8c37.79-20,78.19-28.3,120.93-25.07,58.48,4.42,108.27,27.79,149.83,68.85,20,19.72,35,43,47.36,68.09,3.59,7.31,7.65,14.38,11.21,21.7.83,1.69,1.35,4.36.59,5.87C864,707,851.15,731.82,837.87,757.63Z"/></svg>